<?xml version="1.0" standalone="no"?>
<!DOCTYPE svg PUBLIC "-//W3C//DTD SVG 20010904//EN"
 "http://www.w3.org/TR/2001/REC-SVG-20010904/DTD/svg10.dtd">
<svg version="1.0" xmlns="http://www.w3.org/2000/svg"
 width="996.000000pt" height="996.000000pt" viewBox="0 0 996.000000 996.000000"
 preserveAspectRatio="xMidYMid meet">
<metadata>
Created by potrace 1.14, written by Peter Selinger 2001-2017
</metadata>
<g transform="translate(0.000000,996.000000) scale(0.100000,-0.100000)"
fill="#000000" stroke="none">
<path d="M4089 9295 c-2 -1 -44 -6 -94 -9 -49 -3 -106 -8 -125 -11 -19 -2 -57
-7 -85 -11 -104 -12 -119 -14 -149 -20 -17 -3 -50 -9 -74 -15 -24 -5 -48 -7
-53 -4 -5 4 -9 1 -9 -4 0 -6 -3 -10 -7 -9 -11 3 -88 -12 -155 -29 -32 -8 -66
-16 -75 -18 -53 -11 -245 -68 -318 -95 -116 -41 -202 -73 -230 -85 -16 -7 -55
-23 -85 -35 -151 -61 -456 -221 -587 -306 -28 -19 -56 -34 -62 -34 -6 0 -11
-4 -11 -10 0 -5 -5 -10 -10 -10 -6 0 -20 -9 -32 -20 -12 -11 -28 -20 -35 -20
-7 0 -13 -4 -13 -10 0 -5 -6 -10 -12 -10 -7 0 -26 -12 -43 -25 -16 -14 -73
-58 -126 -98 -136 -102 -158 -121 -306 -253 -138 -125 -314 -309 -423 -444
-19 -24 -40 -48 -45 -54 -6 -6 -28 -36 -50 -66 -22 -30 -44 -60 -50 -66 -22
-25 -43 -52 -46 -60 -4 -8 -140 -218 -178 -274 -9 -14 -25 -41 -35 -60 -9 -19
-28 -53 -40 -75 -53 -91 -204 -403 -210 -435 -1 -3 -15 -41 -33 -85 -34 -89
-45 -115 -49 -130 -2 -5 -19 -62 -39 -125 -20 -63 -39 -124 -41 -135 -3 -11
-7 -27 -9 -35 -2 -8 -4 -16 -5 -17 -3 -3 -2 -2 -15 -58 -10 -46 -12 -53 -15
-60 -4 -7 -5 -15 -14 -65 -8 -42 -10 -55 -20 -97 -15 -70 -36 -218 -32 -228 2
-7 2 -16 -2 -19 -8 -9 -13 -42 -30 -221 -15 -167 -8 -673 13 -855 11 -101 16
-140 25 -190 5 -30 12 -70 15 -87 13 -80 17 -102 30 -159 8 -34 16 -73 19 -85
12 -59 80 -293 118 -403 74 -216 231 -565 312 -694 14 -23 26 -46 26 -52 0 -5
3 -10 8 -10 4 0 14 -15 22 -33 7 -17 18 -36 22 -42 7 -9 158 -234 183 -273 6
-9 15 -21 20 -27 6 -7 21 -27 35 -45 45 -61 162 -204 208 -255 123 -136 383
-391 443 -433 11 -8 39 -32 62 -53 23 -21 45 -39 49 -39 4 0 20 -11 35 -25 55
-48 248 -185 261 -185 6 0 12 -3 14 -8 3 -8 144 -102 152 -102 3 0 34 -18 68
-40 35 -22 68 -40 75 -40 6 0 13 -4 15 -8 6 -14 353 -182 369 -178 3 0 12 -4
20 -11 39 -32 506 -192 639 -219 14 -2 39 -9 55 -14 17 -5 41 -11 55 -12 14
-2 31 -7 38 -11 6 -5 12 -6 12 -4 0 3 17 1 38 -5 20 -5 46 -11 57 -12 11 -2
63 -11 115 -19 109 -19 154 -25 229 -32 29 -3 58 -8 64 -12 6 -3 7 -1 3 5 -5
9 -1 10 16 4 66 -25 646 -22 838 3 19 2 58 7 85 10 28 4 102 15 165 26 63 11
126 22 140 24 14 2 57 11 95 20 39 9 77 18 85 20 8 1 22 5 30 8 8 3 44 13 80
22 36 9 82 22 103 30 20 8 37 12 37 9 0 -4 7 -1 15 6 8 7 15 9 15 5 0 -4 7 -1
17 6 9 8 19 13 22 12 3 -2 35 7 71 19 36 12 68 22 72 23 3 0 10 3 14 8 4 4 16
7 26 7 10 0 18 5 18 10 0 6 3 9 8 8 11 -3 85 23 101 36 8 6 16 10 17 9 9 -6
64 10 64 18 0 5 7 9 16 9 9 0 30 6 47 14 18 8 66 28 109 45 42 16 98 40 125
52 26 12 54 22 61 22 6 0 12 4 12 9 0 4 6 8 14 8 8 0 45 14 83 31 37 17 82 37
98 44 194 87 553 264 561 276 3 5 14 9 25 9 10 0 19 5 19 10 0 6 6 10 13 10 7
0 29 11 50 25 20 14 37 23 37 19 0 -4 8 -1 18 7 9 8 42 28 72 44 30 15 66 37
79 47 13 10 27 18 32 18 4 0 52 27 106 61 54 33 107 66 118 72 11 7 45 29 77
49 31 21 62 38 67 38 6 0 11 3 11 8 0 4 23 21 50 37 27 17 50 33 50 38 0 4 5
7 10 7 6 0 34 17 63 38 29 21 95 70 147 108 52 38 97 71 100 74 3 3 34 28 70
55 36 27 70 54 76 60 6 5 30 26 54 45 202 166 527 485 633 622 12 16 32 40 45
54 36 40 165 214 208 279 21 33 41 62 45 65 27 25 200 344 254 470 20 47 40
94 45 105 22 51 85 239 95 281 2 10 13 55 25 100 11 44 22 96 24 115 3 19 6
34 7 34 1 0 3 14 4 30 2 17 4 30 5 30 1 0 3 16 5 35 2 19 4 35 5 35 14 0 19
451 7 570 -4 39 -9 85 -11 102 -3 28 -12 74 -21 118 -2 6 -6 27 -9 49 -3 21
-8 42 -11 46 -2 3 -7 20 -9 37 -14 79 -91 312 -143 433 -61 142 -207 420 -225
428 -5 2 -8 8 -8 13 0 12 -193 297 -209 309 -4 3 -18 21 -31 40 -13 19 -31 42
-40 50 -8 8 -35 40 -60 70 -83 103 -349 376 -466 480 -41 37 -162 140 -179
153 -5 4 -22 18 -37 32 -15 13 -45 36 -65 52 -21 15 -40 30 -43 33 -3 3 -34
27 -70 53 -36 27 -73 54 -82 62 -9 7 -29 22 -45 32 -15 9 -30 20 -33 24 -19
23 -493 329 -510 329 -6 0 -10 5 -10 10 0 6 -4 10 -10 10 -5 0 -38 17 -72 38
-63 38 -143 83 -313 174 -116 62 -539 270 -555 273 -3 0 -34 14 -70 30 -36 17
-67 30 -70 31 -3 0 -25 10 -50 21 -42 20 -253 109 -280 118 -3 1 -18 7 -33 13
-16 7 -30 12 -31 12 -2 0 -21 8 -42 17 -22 9 -42 16 -46 15 -5 -1 -8 2 -8 6 0
4 -12 9 -26 10 -15 1 -33 7 -40 12 -6 6 -25 15 -41 20 -15 4 -80 27 -143 50
-103 37 -197 68 -225 75 -5 1 -35 9 -66 19 -31 9 -65 18 -75 21 -11 2 -34 8
-52 14 -18 5 -35 10 -37 10 -3 1 -6 1 -7 2 -2 0 -16 3 -33 5 -16 3 -37 7 -45
11 -8 3 -25 8 -38 10 -12 2 -79 14 -148 27 -68 12 -138 22 -154 22 -17 -1 -30
2 -30 5 0 3 -17 7 -37 8 -55 4 -98 9 -98 11 0 8 -658 24 -666 15z m-774 -2028
c37 -18 342 -192 392 -223 13 -8 25 -14 28 -14 2 -1 41 -23 86 -50 44 -28 82
-50 85 -50 2 0 21 -11 42 -23 20 -13 58 -35 83 -49 82 -46 94 -53 109 -64 8
-7 42 -26 74 -43 33 -17 64 -35 70 -40 11 -8 49 -30 166 -94 30 -17 57 -34 58
-39 2 -4 7 -8 12 -8 7 0 248 -137 455 -258 33 -19 78 -45 100 -58 22 -13 51
-29 65 -37 14 -8 42 -24 64 -35 21 -12 47 -29 58 -39 11 -10 23 -17 27 -17 6
2 111 -57 183 -103 21 -12 39 -23 42 -23 2 0 65 -36 141 -80 76 -44 140 -80
143 -80 3 0 19 -10 36 -23 17 -12 42 -28 56 -35 14 -7 43 -23 65 -37 22 -13
49 -28 61 -34 11 -5 51 -28 88 -50 36 -23 71 -41 76 -41 6 0 10 -3 10 -7 0 -5
19 -17 43 -28 23 -11 44 -22 47 -25 3 -3 16 -11 29 -18 13 -8 38 -22 55 -32
17 -9 65 -37 106 -60 41 -24 78 -47 81 -52 3 -5 12 -10 20 -11 8 -2 30 -12 49
-23 19 -12 90 -53 157 -93 160 -93 203 -146 218 -267 6 -43 -13 -144 -27 -144
-5 0 -7 -4 -4 -9 6 -9 -80 -111 -93 -111 -9 0 -171 -94 -188 -110 -7 -6 -13
-8 -13 -5 0 3 -17 -6 -37 -19 -32 -20 -277 -162 -413 -239 -67 -37 -225 -130
-250 -146 -14 -8 -28 -15 -32 -14 -3 2 -12 -4 -18 -12 -7 -8 -19 -15 -26 -15
-8 0 -14 -4 -14 -9 0 -5 -8 -11 -17 -14 -10 -3 -40 -19 -68 -35 -27 -16 -106
-62 -175 -102 -69 -40 -143 -83 -165 -96 -22 -13 -52 -29 -67 -36 -16 -7 -28
-16 -28 -20 0 -4 -4 -8 -10 -8 -7 0 -114 -58 -200 -110 -86 -52 -218 -126
-227 -128 -7 -2 -13 -8 -13 -13 0 -5 -4 -9 -8 -9 -7 0 -121 -63 -182 -100 -16
-10 -244 -141 -295 -170 -16 -9 -73 -42 -125 -72 -52 -30 -106 -61 -120 -69
-14 -8 -27 -17 -30 -20 -3 -3 -20 -12 -37 -20 -18 -8 -33 -17 -33 -21 0 -5 -5
-8 -10 -8 -14 0 -273 -151 -282 -164 -4 -6 -8 -8 -8 -4 0 3 -37 -16 -82 -43
-46 -27 -95 -54 -110 -60 -16 -6 -28 -15 -28 -20 0 -5 -6 -9 -13 -9 -7 0 -36
-16 -64 -35 -29 -19 -54 -35 -57 -35 -3 0 -29 -14 -58 -31 -66 -39 -77 -42
-163 -45 -56 -2 -79 2 -121 22 -51 24 -134 104 -134 129 0 8 -4 16 -9 19 -5 3
-12 27 -16 53 -6 43 -8 4092 -2 4153 1 14 5 30 8 35 4 6 9 22 13 37 12 51 115
142 174 154 8 1 17 5 20 9 14 14 138 2 177 -18z"/>
</g>
</svg>
