<?xml version="1.0" encoding="utf-8"?>
<!-- Generator: Adobe Illustrator 24.1.1, SVG Export Plug-In . SVG Version: 6.00 Build 0)  -->
<svg version="1.1" id="Layer_1" xmlns="http://www.w3.org/2000/svg" xmlns:xlink="http://www.w3.org/1999/xlink" x="0px" y="0px"
	 viewBox="0 0 248.97 215.9" style="enable-background:new 0 0 248.97 215.9;" xml:space="preserve">
<style type="text/css">
	.st0{fill:#C60000;}
	.st1{fill:#5E0000;}
</style>
<g>
	<g>
		<path class="st0" d="M145.01,6.48C75.86-18.45,1.68,31.56,0,105.05c-0.02,0.96-0.03,1.93-0.03,2.9c0,0.97,0.01,1.94,0.03,2.9
			c1.68,73.49,75.86,123.5,145.01,98.57c62.97-22.7,103.96-59.69,103.96-101.47C248.97,66.17,207.98,29.18,145.01,6.48z
			 M83.63,164.79c-4.74,2.74-10.67-0.68-10.67-6.15V57.26c0-5.47,5.93-8.89,10.67-6.15l87.79,50.68c4.74,2.74,4.74,9.58,0,12.32
			l-83.7,48.32L83.63,164.79z"/>
	</g>
	<path class="st1" d="M172.7,113.75l-82.42,47.58c-0.83,0.48-1.69,0.85-2.56,1.1l83.7-48.32c4.74-2.74,4.74-9.58,0-12.32
		L83.63,51.11c-4.74-2.74-10.67,0.68-10.67,6.15v-1.1c0-8.89,9.62-14.44,17.32-10l82.42,47.59C180.4,98.19,180.4,109.3,172.7,113.75
		z"/>
</g>
</svg>
