<?xml version="1.0" encoding="utf-8"?>
<!-- Generator: Adobe Illustrator 24.1.1, SVG Export Plug-In . SVG Version: 6.00 Build 0)  -->
<svg version="1.1" id="prefix_Layer_1" xmlns="http://www.w3.org/2000/svg" xmlns:xlink="http://www.w3.org/1999/xlink" x="0px"
	 y="0px" viewBox="0 0 225 225" style="enable-background:new 0 0 225 225;" xml:space="preserve">
<style type="text/css">
	.st0{opacity:3.000000e-02;enable-background:new    ;}
	.st1{fill:#F00000;}
	.st2{fill:#FFFFFF;}
	.st3{opacity:0.5;fill:#3B001A;enable-background:new    ;}
	.st4{opacity:0.11;fill:#3B001A;enable-background:new    ;}
</style>
<path class="st0" d="M79.5,72.1l85,39.9l-11.1,5.4L79.5,72.1z"/>
<path class="st1" d="M112.5,0C50.4,0,0,50.3,0,112.5S50.4,225,112.5,225S225,174.6,225,112.5C225,50.3,174.6,0,112.5,0
	C112.5,0,112.5,0,112.5,0z M164.5,112L80,152.9l-0.4-80.8L164.5,112L164.5,112z"/>
<path class="st2" d="M80,152.9L80,152.9L79.5,72h0.1L80,152.9z"/>
<path class="st3" d="M80,152.9l84.5-40.9L79.5,72l-0.1-9.8l95.3,44.8L80,152.9L80,152.9z"/>
<path class="st4" d="M225,112.5c0,62.1-50.4,112.5-112.5,112.5C50.3,224.9,0,174.5,0,112.4C0,51.4,48.6,1.5,109.6,0
	C49.5,1.6,2.1,51.6,3.7,111.6s51.6,107.5,111.7,105.9s107.5-51.6,105.9-111.7C219.7,48,173.2,1.5,115.4,0
	C176.4,1.5,225,51.5,225,112.5z"/>
</svg>
