<?xml version="1.0" encoding="utf-8"?>
<!-- Generator: Adobe Illustrator 24.1.1, SVG Export Plug-In . SVG Version: 6.00 Build 0)  -->
<svg version="1.1" id="Layer_1" xmlns="http://www.w3.org/2000/svg" xmlns:xlink="http://www.w3.org/1999/xlink" x="0px" y="0px"
	 viewBox="0 0 1280 1280" style="enable-background:new 0 0 1280 1280;" xml:space="preserve">
<style type="text/css">
	.st0{fill:none;}
	.st1{fill:#0F0F0F;}
	.st2{font-family:'PTSans-Bold';}
	.st3{font-size:400px;}
	.st4{letter-spacing:-66;}
	.st5{letter-spacing:-24;}
	.st6{opacity:0.03;}
	.st7{fill:#F00000;}
	.st8{fill:#FFFFFF;}
	.st9{opacity:0.5;fill:#3B001A;}
	.st10{opacity:0.11;fill:#3B001A;}
	.st11{letter-spacing:-16;}
</style>
<polygon class="st0" points="593.9,238.35 586.62,238.35 586.62,238.35 593.9,238.35 "/>
<g>
	<text transform="matrix(1 0 0 1 607.1441 755.3992)"><tspan x="0" y="0" class="st1 st2 st3 st4">Y</tspan><tspan x="170.4" y="0" class="st1 st2 st3 st5">o</tspan><tspan x="361.19" y="0" class="st1 st2 st3">u</tspan></text>
	<text transform="matrix(1 0 0 1 501.2475 755.3994)" class="st1 st2 st3">r</text>
	<g>
		<polygon class="st6" points="366.82,599.61 451.78,639.54 440.66,644.92 		"/>
		<g>
			<g>
				<g>
					<path class="st7" d="M399.81,527.5c-62.14,0-112.5,50.36-112.5,112.5s50.36,112.5,112.5,112.5s112.5-50.36,112.5-112.5
						S461.94,527.5,399.81,527.5z M451.78,639.54l-84.51,40.85l-0.45-80.78L451.78,639.54z"/>
				</g>
				<polygon class="st8" points="367.27,680.39 367.22,680.42 366.77,599.58 366.82,599.61 				"/>
				<polygon class="st9" points="367.27,680.39 451.78,639.54 366.82,599.61 366.77,589.77 462.1,634.58 367.27,680.42 				"/>
			</g>
			<path class="st10" d="M512.31,640c0,62.14-50.36,112.5-112.5,112.5s-112.5-50.36-112.5-112.5c0-61.16,48.8-110.92,109.59-112.46
				c-58.74,1.54-105.89,49.64-105.89,108.77c0,60.08,48.72,108.8,108.8,108.8s108.8-48.72,108.8-108.8
				c0-59.12-47.15-107.23-105.89-108.77C463.51,529.08,512.31,578.84,512.31,640z"/>
		</g>
	</g>
	<text transform="matrix(1 0 0 1 96.465 755.3994)" class="st1 st2 st3 st11">F</text>
</g>
<g>
	<g>
	</g>
</g>
</svg>
