<svg id="Layer_1" data-name="Layer 1" xmlns="http://www.w3.org/2000/svg" viewBox="0 0 434 434"><rect x="95.66" y="254.63" width="237.84" height="25.48"/><rect x="119.93" y="156.34" width="57.03" height="87.37"/><rect x="188.49" y="105.98" width="57.03" height="137.73"/><rect x="257.06" y="72.3" width="57.03" height="171.4"/><path d="M257.77,290.83v5.66a3.44,3.44,0,0,1-3.44,3.44H252.5l-27.39,47.43h.3v28.42L208,387.11V347.36h.3l-27.38-47.43H179.1a3.44,3.44,0,0,1-3.44-3.44v-5.66a3.44,3.44,0,0,1,3.44-3.44h75.23A3.44,3.44,0,0,1,257.77,290.83Z"/></svg>