<svg xmlns="http://www.w3.org/2000/svg" viewBox="0 0 434 434"><path fill="#606060" d="M361.5 173.4v-51.5c-1.1-9.1-9.2-15.6-18.2-14.7H125.2c-9-.8-17 5.7-18.2 14.7v90.3c42.6 2.7 78.1 32 89.8 71.5h146.5c9 .8 17-5.7 18.2-14.7v-51.5l72.7 58.8V114.6l-72.7 58.8zm-167.3 66.9v-87.6l75.2 43.8-75.2 43.8z"/><path fill="#606060" d="M99 228c-49.2 0-89 39.8-89 89s39.8 89 89 89 89-39.8 89-89-39.8-89-89-89zm75 136.8c-1.9 3.2-6 4.3-9.2 2.5l-70.2-40.5c-1.3-.8-2.3-1.9-2.8-3.2-1.3-1.4-2.1-3.2-2.1-5.3v-82.5c0-4.2 3.4-7.6 7.6-7.6h.7c4.2 0 7.6 3.4 7.6 7.6v78.9l67.2 38.8c3.2 1.9 4.3 6 2.5 9.2l-1.3 2.1z"/></svg>