<svg xmlns="http://www.w3.org/2000/svg" viewBox="0 0 434 434"><path d="M272.4 12.3L79.5 225.9l51.2-.1v-24.7l13.1-15.2L285.9 30.7c4.8-5.4 12.2-8.4 19.8-8.4 6.6 0 12.7 2.8 16 7.7 1.8 2.6 3.8 6.7 2.3 12l-38.6 126.5-10.1 33-.4 1.2H233l.3 22.8 60-.1L348.5 46c4.4-37.4-50.3-61.6-76.1-33.7z"/><path d="M398.3 201.1H233.1l.3 24.5h137.9c15.8 0 28.6 12.8 28.6 28.7l-23.3 131.4c-2.4 13.8-14.4 23.8-28.3 23.8H190l.2.1-59.5 1.3V201.1H.4V434h368.9c17.7 0 32.8-12.7 35.9-30.1l29.5-166.5c-.1-20.1-16.3-36.3-36.4-36.3zm-293.9 24.8v185.5H26.7V225.9h77.7z"/><path d="M328.7 322.7l-122.1-70.5v141.1z"/></svg>