<?xml version="1.0" encoding="utf-8"?>
<!-- Generator: Adobe Illustrator 24.1.1, SVG Export Plug-In . SVG Version: 6.00 Build 0)  -->
<svg version="1.1" id="Layer_1" xmlns="http://www.w3.org/2000/svg" xmlns:xlink="http://www.w3.org/1999/xlink" x="0px" y="0px"
	 viewBox="0 0 434 434" enable-background="new 0 0 434 434" xml:space="preserve">
<path fill="none" stroke="#606060" stroke-width="20" stroke-miterlimit="10" d="M392.1,85.1H194.2c-10.8,0-19.5-10-19.5-22.3V34.3
	c0-14.4-4.9-26-11-26H63c-6.1,0-11,11.6-11,26v96.4v21v184.8c0,25.2,15,45.6,33.6,45.6h306.5c18.6,0,33.6-20.4,33.6-45.6V130.7
	C425.7,105.5,410.7,85.1,392.1,85.1z"/>
<path fill="none" stroke="#606060" stroke-width="20" stroke-miterlimit="10" d="M295.9,182.3l-81.1-49.7c-6.2-3.8-14,0.7-14,7.9
	v99.3c0,7.3,7.9,11.7,14,7.9l81.1-49.7C301.8,194.5,301.8,185.9,295.9,182.3z"/>
<g>
	<line fill="none" stroke="#606060" stroke-width="20" stroke-miterlimit="10" x1="119.5" y1="295.1" x2="152.7" y2="295.1"/>
	<line fill="none" stroke="#606060" stroke-width="20" stroke-miterlimit="10" x1="179.4" y1="295.1" x2="349.3" y2="295.1"/>
	<line fill="none" stroke="#606060" stroke-width="20" stroke-miterlimit="10" x1="119.5" y1="328.2" x2="286.2" y2="328.2"/>
	<line fill="none" stroke="#606060" stroke-width="20" stroke-miterlimit="10" x1="316.1" y1="328.2" x2="349.3" y2="328.2"/>
</g>
<line fill="none" stroke="#606060" stroke-width="20" stroke-miterlimit="10" x1="9.9" y1="68.4" x2="9.9" y2="423.3"/>
<line fill="none" stroke="#606060" stroke-width="20" stroke-miterlimit="10" x1="-0.1" y1="424.7" x2="350.8" y2="424.7"/>
</svg>
