<svg xmlns="http://www.w3.org/2000/svg" viewBox="0 0 434 434"><path fill="none" stroke="#606060" stroke-width="20" stroke-miterlimit="10" d="M392.1 85.1H194.2c-10.8 0-19.5-10-19.5-22.3V34.3c0-14.4-4.9-26-11-26H63c-6.1 0-11 11.6-11 26V336.5c0 25.2 15 45.6 33.6 45.6h306.5c18.6 0 33.6-20.4 33.6-45.6V130.7c0-25.2-15-45.6-33.6-45.6z"/><path fill="none" stroke="#606060" stroke-width="20" stroke-miterlimit="10" d="M295.9 182.3l-81.1-49.7c-6.2-3.8-14 .7-14 7.9v99.3c0 7.3 7.9 11.7 14 7.9l81.1-49.7c5.9-3.5 5.9-12.1 0-15.7z"/><g fill="none" stroke="#606060" stroke-width="20" stroke-miterlimit="10"><path d="M119.5 295.1h33.2M179.4 295.1h169.9M119.5 328.2h166.7M316.1 328.2h33.2"/></g><path fill="none" stroke="#606060" stroke-width="20" stroke-miterlimit="10" d="M9.9 68.4v354.9M-.1 424.7h350.9"/></svg>