<svg data-name="Layer 1" xmlns="http://www.w3.org/2000/svg" viewBox="0 0 434 434"><path d="M324.39 182.93l17.41-7.66a91.5 91.5 0 10-73.72-167.5l-163.64 72a91.47 91.47 0 0010.28 171.28l-17.4 7.66A91.5 91.5 0 10171 426.23l163.62-72a91.48 91.48 0 00-10.27-171.28zM313.88 339l-140 61.63a69.21 69.21 0 11-55.76-126.69l39.18-17.25a20.2 20.2 0 01-1.18-6.81v-22.39A69.2 69.2 0 01125.24 95l140-61.63A69.21 69.21 0 11321 160.06l-25.43 11.2-2.4 1.05v35.55l5.64-.21A69.2 69.2 0 01313.88 339z" fill="#bb1e23"/><path d="M254.24 195.78l-53.31-28.06A17.24 17.24 0 00175.66 183v56.11a17.24 17.24 0 0025.27 15.25l53.31-28.05a17.23 17.23 0 000-30.53z" fill="#bb1e23"/><path fill="#1d1d1b" d="M295.58 171.26l-2.4 1.05v-1.05h2.4z"/></svg>