<svg xmlns="http://www.w3.org/2000/svg" viewBox="0 0 240.45 280.99"><g data-name="Layer 2"><g data-name="Layer 1"><path d="M30.51 0h32.76v208.29H30.51z"/><path d="M46.89 280.99l46.9-81.23H0l46.89 81.23zM162 205.21h-17.8a17.8 17.8 0 1035.59 0zM224.21 199.17h-122l18.67-32.34v-43.06a38.66 38.66 0 01.21-4c2.14-20.29 20.19-36.13 42.13-36.13s40 15.84 42.13 36.13a38.66 38.66 0 01.21 4v43.06z"/><path d="M120.86 119.72h.21a38.66 38.66 0 00-.21 4zM205.54 119.72v4a38.66 38.66 0 00-.21-4zM205.54 19.18a34.92 34.92 0 1034.91 34.91 34.91 34.91 0 00-34.91-34.91zm6.4 53.74h-7.59v-26.7h-6.56v-6.09h14.15z"/></g></g></svg>