<svg xmlns="http://www.w3.org/2000/svg" viewBox="0 0 434 434"><g fill="#606060"><path d="M138.7 197.1h.5c32.6 0 58.9-26.4 58.9-58.9s-26.4-58.9-58.9-58.9-58.9 26.4-58.9 58.9c-.2 32.4 26 58.8 58.4 58.9zm-35.8-65.5c1.3-11.1 7.2-20.9 15.7-27.3l64.4 32.2-64.5 32.2c-8.5-6.4-14.3-16.1-15.6-27.2v-9.9zM295.8 197.1h.5c32.6 0 58.9-26.4 58.9-58.9s-26.4-58.9-58.9-58.9-58.9 26.4-58.9 58.9c-.2 32.4 26 58.8 58.4 58.9zm-37.5-65.5c1.3-11.1 7.2-20.9 15.7-27.3l64.4 32.2-64.5 32.2c-8.5-6.4-14.3-16.1-15.6-27.2v-9.9zM139.2 236.3C93.4 236.3 1.7 259.2 1.7 305v49.1h274.9V305c.1-45.7-91.6-68.7-137.4-68.7zM296.3 236.3c-5.7.1-12.2.5-19.1 1.1 23.4 14.7 37.9 40.1 38.7 67.8v49.1h117.9v-49.2c0-45.8-91.7-68.8-137.5-68.8z"/></g></svg>