<svg xmlns="http://www.w3.org/2000/svg" viewBox="0 0 434 434"><g fill="none" stroke="#606060" stroke-width="20" stroke-miterlimit="10"><path d="M297.77 424.09H137.79c-13.34 0-24.15-10.75-24.15-29.68V28.26c0-7.6 10.81-18.35 24.15-18.35h159.98c13.34 0 24.15 10.75 24.15 24.02v366.15c0 13.26-10.81 24.01-24.15 24.01z"/><path d="M358.8 29.42h-38.87C317.81 18.31 308 9.91 296.21 9.91H136.23c-11.79 0-21.6 8.4-23.72 19.51H75.2c-13.34 0-24.15 10.75-24.15 24.02v324.1c0 13.26 10.81 24.02 24.15 24.02h36.93c.77 12.57 11.27 22.53 24.1 22.53h159.98c12.84 0 24.94-9.96 25.71-22.53h36.88c13.34 0 24.15-10.75 24.15-24.02V53.44c0-13.26-10.81-24.02-24.15-24.02z"/><path d="M408.37 63.4h-25.42v-9.96c0-13.26-10.81-24.02-24.15-24.02h-37.31c-2.12-11.11-11.93-19.51-23.72-19.51H137.79c-11.79 0-21.6 8.4-23.72 19.51H75.2c-13.34 0-24.15 10.75-24.15 24.02v9.96H25.63c-8.79 0-15.92 7.87-15.92 17.57v267.91c0 9.7 7.13 17.57 15.41 21.72h25.92v6.95c0 13.26 10.81 24.02 24.15 24.02h36.88c.77 12.57 12.87 22.53 25.71 22.53h159.98c12.84 0 23.33-9.96 24.1-22.53h36.93c13.34 0 24.15-10.75 24.15-24.02v-6.95h25.92c8.29-4.14 15.41-12.01 15.41-21.72V80.97c.02-9.7-7.11-17.57-15.9-17.57z"/></g><path fill="#606060" d="M276.37 217l-106.22-61.33v122.66z"/></svg>