<?xml version="1.0" encoding="utf-8"?>
<!-- Generator: Adobe Illustrator 24.1.1, SVG Export Plug-In . SVG Version: 6.00 Build 0)  -->
<svg version="1.1" id="Layer_1" xmlns="http://www.w3.org/2000/svg" xmlns:xlink="http://www.w3.org/1999/xlink" x="0px" y="0px"
	 viewBox="0 0 434 434" enable-background="new 0 0 434 434" xml:space="preserve">
<g>
	<path fill="none" stroke="#606060" stroke-width="20" stroke-miterlimit="10" d="M297.77,424.09H137.79
		c-13.34,0-24.15-10.75-24.15-29.68V28.26c0-7.6,10.81-18.35,24.15-18.35h159.98c13.34,0,24.15,10.75,24.15,24.02v366.15
		C321.92,413.34,311.11,424.09,297.77,424.09z"/>
	<path fill="none" stroke="#606060" stroke-width="20" stroke-miterlimit="10" d="M358.8,29.42h-38.87
		C317.81,18.31,308,9.91,296.21,9.91H136.23c-11.79,0-21.6,8.4-23.72,19.51H75.2c-13.34,0-24.15,10.75-24.15,24.02v324.1
		c0,13.26,10.81,24.02,24.15,24.02h36.93c0.77,12.57,11.27,22.53,24.1,22.53h159.98c12.84,0,24.94-9.96,25.71-22.53h36.88
		c13.34,0,24.15-10.75,24.15-24.02V53.44C382.95,40.18,372.14,29.42,358.8,29.42z"/>
	<path fill="none" stroke="#606060" stroke-width="20" stroke-miterlimit="10" d="M408.37,63.4h-25.42v-9.96
		c0-13.26-10.81-24.02-24.15-24.02h-37.31c-2.12-11.11-11.93-19.51-23.72-19.51H137.79c-11.79,0-21.6,8.4-23.72,19.51H75.2
		c-13.34,0-24.15,10.75-24.15,24.02v9.96H25.63c-8.79,0-15.92,7.87-15.92,17.57v267.91c0,9.7,7.13,17.57,15.41,21.72h25.92v6.95
		c0,13.26,10.81,24.02,24.15,24.02h36.88c0.77,12.57,12.87,22.53,25.71,22.53h159.98c12.84,0,23.33-9.96,24.1-22.53h36.93
		c13.34,0,24.15-10.75,24.15-24.02v-6.95h25.92c8.29-4.14,15.41-12.01,15.41-21.72V80.97C424.29,71.27,417.16,63.4,408.37,63.4z"/>
</g>
<polygon fill="#606060" points="276.37,217 170.15,155.67 170.15,278.33 "/>
</svg>
