<svg xmlns="http://www.w3.org/2000/svg" viewBox="0 0 434 434"><path stroke="#000" stroke-miterlimit="10" d="M216.3 100c-9.7 0-19 1.2-28 3.4-.1 0-.2.1-.3.1-1.6.4-3.1.8-4.6 1.3-.1 0-.2.1-.3.1-4.8 1.4-9.4 3.1-13.9 5.1-.1.1-.2.1-.3.1-1.4.6-2.9 1.3-4.3 2-.1 0-.2.1-.3.2-4.4 2.2-8.6 4.6-12.6 7.2-.1.1-.2.1-.3.2-1.3.8-2.5 1.7-3.8 2.6l-.3.3c-1.3.9-2.5 1.9-3.7 2.8l-.1.1c-2.5 2-4.9 4.1-7.2 6.2l-.3.3c-1.1 1-2.2 2.1-3.2 3.2-.1.1-.2.3-.4.4-1.1 1.1-2.1 2.2-3.1 3.3l-.2.2c-1.1 1.2-2.1 2.4-3.1 3.6 0 0 0 0 0 0-1 1.2-1.9 2.4-2.9 3.6-.1.1-.2.3-.3.4-.9 1.2-1.8 2.4-2.6 3.6-.1.2-.2.3-.4.5-.9 1.2-1.7 2.5-2.5 3.7-.1.1-.1.2-.2.3-.8 1.3-1.6 2.6-2.4 4 0 0 0 .1-.1.1-.8 1.3-1.5 2.7-2.2 4l-.3.6c-.7 1.3-1.3 2.6-1.9 4-.1.2-.2.4-.3.7-.6 1.3-1.2 2.7-1.8 4.1-.1.2-.1.3-.2.5-.6 1.4-1.1 2.8-1.7 4.3v.1c-.5 1.4-1 2.9-1.5 4.4-.1.2-.1.4-.2.6-.4 1.4-.9 2.8-1.3 4.3-.1.3-.1.5-.2.8-.4 1.4-.7 2.9-1.1 4.3 0 .2-.1.4-.1.6-.3 1.5-.6 3-.9 4.6v.1c-.3 1.5-.5 3.1-.7 4.7 0 .2-.1.5-.1.7-.2 1.5-.4 3-.5 4.5 0 .3 0 .6-.1.8-.1 1.5-.2 3-.3 4.6v.7c-.1 1.6-.1 3.2-.1 4.9 0 64.9 52.6 117.5 117.5 117.5h4.2c.7 0 1.4 0 2.1-.1.4 0 .8-.1 1.2-.1.6 0 1.3-.1 1.9-.1.4 0 .9-.1 1.3-.1.6-.1 1.2-.1 1.8-.2.4-.1.9-.1 1.3-.2.6-.1 1.2-.1 1.8-.2.4-.1.9-.1 1.3-.2l1.8-.3c.4-.1.9-.1 1.3-.2l1.8-.3 1.2-.2c.6-.1 1.2-.2 1.8-.4l1.2-.3c.6-.1 1.3-.3 1.9-.5.4-.1.7-.2 1.1-.3l2.1-.6c.3-.1.5-.1.8-.2 2-.6 3.9-1.2 5.9-1.8.1 0 .2-.1.3-.1.9-.3 1.7-.6 2.5-.9.2-.1.5-.2.7-.3.7-.3 1.4-.5 2.1-.8.3-.1.6-.2.8-.3.7-.3 1.3-.5 2-.8.3-.1.6-.3.9-.4.6-.3 1.3-.6 1.9-.8.3-.1.6-.3.9-.4.6-.3 1.2-.6 1.9-.9.3-.1.6-.3.9-.4.6-.3 1.2-.6 1.9-1 .3-.1.5-.3.8-.4.6-.3 1.3-.7 1.9-1.1.2-.1.5-.3.7-.4.7-.4 1.4-.8 2-1.2.2-.1.4-.2.5-.3.8-.5 1.6-1 2.3-1.4.1 0 .1-.1.2-.1 3.4-2.2 6.7-4.6 9.9-7.1.1-.1.2-.1.3-.2.7-.6 1.4-1.1 2-1.7.1-.1.3-.2.4-.3.6-.5 1.3-1.1 1.9-1.6l.4-.4c.6-.5 1.2-1.1 1.8-1.6l.4-.4c.6-.6 1.2-1.1 1.8-1.7l.4-.4 1.8-1.8.3-.3c.6-.6 1.2-1.3 1.8-1.9l.2-.2c19.2-20.9 31-48.8 31-79.5-.2-65.3-52.8-117.9-117.7-117.9zm54.3 196.6c-59.7-5.6-106.5-55.8-106.5-117 0-17.2 3.7-33.6 10.4-48.4 12.6-6.1 26.8-9.6 41.8-9.6 53 0 95.9 42.9 95.9 95.9 0 32.8-16.4 61.8-41.6 79.1z"/><circle cx="265.4" cy="177.5" r="25.8"/><circle fill="none" stroke="#000" stroke-miterlimit="10" cx="265.4" cy="177.5" r="25.8"/><circle cx="246.9" cy="234.3" r="25.8"/><circle fill="none" stroke="#000" stroke-miterlimit="10" cx="246.9" cy="234.3" r="25.8"/><g><circle cx="209.6" cy="169.4" r="25.8"/><circle fill="none" stroke="#000" stroke-miterlimit="10" cx="209.6" cy="169.4" r="25.8"/></g><g stroke="#000" stroke-miterlimit="10"><path d="M216.8 82.8h-3.1c-7.6 0-13.8-6.2-13.8-13.8V14.3c0-7.6 6.2-13.8 13.8-13.8h3.1c7.6 0 13.8 6.2 13.8 13.8V69c-.1 7.6-6.2 13.8-13.8 13.8zM215.6 434.5h-3.1c-7.6 0-13.8-6.2-13.8-13.8V366c0-7.6 6.2-13.8 13.8-13.8h3.1c7.6 0 13.8 6.2 13.8 13.8v54.7c0 7.7-6.2 13.8-13.8 13.8zM351.1 218.2v-3.1c0-7.6 6.2-13.8 13.8-13.8h54.7c7.6 0 13.8 6.2 13.8 13.8v3.1c0 7.6-6.2 13.8-13.8 13.8h-54.7c-7.6-.1-13.8-6.2-13.8-13.8zM-.7 217.3v-3.1c0-7.6 6.2-13.8 13.8-13.8h54.7c7.6 0 13.8 6.2 13.8 13.8v3.1c0 7.6-6.2 13.8-13.8 13.8H13.1C5.5 231-.7 224.9-.7 217.3z"/></g><g stroke="#000" stroke-miterlimit="10"><path d="M117.1 116.2l-2.2 2.2c-5.7 5.7-14.9 5.7-20.6 0L53.5 77.7c-5.7-5.7-5.7-14.9 0-20.6l2.2-2.2c5.7-5.7 14.9-5.7 20.6 0L117 95.6c5.8 5.7 5.8 14.9.1 20.6zM378.7 379.5l-2.2 2.2c-5.7 5.7-14.9 5.7-20.6 0L315.1 341c-5.7-5.7-5.7-14.9 0-20.6l2.2-2.2c5.7-5.7 14.9-5.7 20.6 0l40.7 40.7c5.8 5.7 5.8 14.9.1 20.6zM318.3 116.9l-2.2-2.2c-5.7-5.7-5.7-14.9 0-20.6l40.7-40.7c5.7-5.7 14.9-5.7 20.6 0l2.2 2.2c5.7 5.7 5.7 14.9 0 20.6L339 116.9c-5.7 5.7-15 5.7-20.7 0zM55.2 378.7l-2.2-2.2c-5.7-5.7-5.7-14.9 0-20.6l40.7-40.7c5.7-5.7 14.9-5.7 20.6 0l2.2 2.2c5.7 5.7 5.7 14.9 0 20.6l-40.7 40.7c-5.7 5.7-14.9 5.7-20.6 0z"/></g></svg>