<svg xmlns="http://www.w3.org/2000/svg" viewBox="0 0 434 434"><path fill="#606060" d="M217.1 67.9C121.6 68 35.7 126.2.8 214.8c46.9 119 181.8 177.5 301.3 130.8 60.2-23.5 107.8-70.9 131.5-130.8-35-88.6-120.9-146.8-216.5-146.9zm0 244.8c-54.3 0-98.4-43.8-98.4-97.9 0-54.1 44-97.9 98.4-97.9 54.3 0 98.4 43.8 98.4 97.9 0 54-44 97.8-98.4 97.9z"/><g fill="#606060"><path d="M276.3 214.7l-96.2-46.1c10.1-8.2 23-13 37-13h.2c32.6 0 59 26.5 59 59.1zM276.3 214.7c0 32.8-26.5 59.3-59.2 59.3S158 247.5 158 214.8c0-18.6 8.6-35.2 22-46.1v92.1l96.3-46.1zM180.1 168.6s-.1 0-.1.1v-.1h.1z"/></g></svg>