<?xml version="1.0" encoding="utf-8"?>
<!-- Generator: Adobe Illustrator 24.1.1, SVG Export Plug-In . SVG Version: 6.00 Build 0)  -->
<svg version="1.1" id="Layer_1" xmlns="http://www.w3.org/2000/svg" xmlns:xlink="http://www.w3.org/1999/xlink" x="0px" y="0px"
	 viewBox="0 0 434 434" enable-background="new 0 0 434 434" xml:space="preserve">
<g>
	<path d="M217,20c26.6,0,52.4,5.21,76.68,15.47c23.46,9.92,44.53,24.13,62.62,42.23c18.1,18.1,32.3,39.17,42.23,62.62
		C408.79,164.6,414,190.4,414,217c0,51.53-19.76,100.26-55.65,137.22c-21.34,21.98-47.83,38.89-76.6,48.89
		C261.01,410.34,239.22,414,217,414s-44.01-3.66-64.76-10.89c-32.3-11.23-61.3-30.88-83.88-56.83C37.18,310.48,20,264.56,20,217
		c0-26.6,5.21-52.4,15.47-76.68C45.39,116.87,59.6,95.8,77.7,77.7c18.1-18.1,39.17-32.3,62.62-42.23C164.6,25.21,190.4,20,217,20
		 M217,0C97.15,0,0,97.15,0,217c0,54.5,20.09,104.31,53.28,142.42c24.56,28.22,56.31,50.03,92.39,62.58
		c22.34,7.78,46.34,12,71.33,12s48.99-4.22,71.33-12c32.27-11.22,61.07-29.85,84.37-53.85C410.64,329.08,434,275.76,434,217
		C434,97.15,336.85,0,217,0L217,0z"/>
</g>
<g>
	<path fill="#FFFFFF" d="M217,194.38c-37.22,0-67.5-30.28-67.5-67.5s30.28-67.5,67.5-67.5s67.5,30.28,67.5,67.5
		S254.22,194.38,217,194.38z M206.13,102.69c-6.39,0-11.58,5.2-11.58,11.58v24.44c0,6.39,5.2,11.59,11.59,11.59
		c2.01,0,4.01-0.54,5.77-1.56l21.16-12.22c3.62-2.09,5.79-5.83,5.79-10.02c0-4.19-2.16-7.94-5.79-10.04l-21.17-12.21
		C210.15,103.23,208.15,102.69,206.13,102.69z"/>
	<path d="M217,64.38c34.46,0,62.5,28.04,62.5,62.5s-28.04,62.5-62.5,62.5s-62.5-28.04-62.5-62.5S182.54,64.38,217,64.38
		 M206.14,155.3c2.88,0,5.74-0.77,8.28-2.23l21.15-12.22c5.19-2.99,8.29-8.35,8.3-14.35c0.01-6-3.09-11.37-8.29-14.38l-21.15-12.2
		c-2.53-1.47-5.4-2.24-8.3-2.24c-9.14,0-16.58,7.44-16.58,16.59v24.44C189.55,147.86,196.99,155.3,206.14,155.3 M217,54.38
		c-40.04,0-72.5,32.46-72.5,72.5c0,40.04,32.46,72.5,72.5,72.5s72.5-32.46,72.5-72.5C289.5,86.84,257.04,54.38,217,54.38L217,54.38z
		 M206.14,145.3c-3.44,0-6.59-2.75-6.59-6.59v-24.44c0-3.84,3.15-6.58,6.58-6.59c1.1,0,2.22,0.28,3.29,0.9l21.16,12.21
		c4.39,2.54,4.39,8.87,0,11.4l-21.16,12.22C208.36,145.02,207.24,145.3,206.14,145.3L206.14,145.3z"/>
</g>
<path fill="#FFFFFF" stroke="#000000" stroke-width="20" stroke-miterlimit="10" d="M358.97,355.7
	c-7.13-155.2-61.61-138.14-142.1-138.14c-80.47,0-134.44-17.15-141.69,137.98c-0.14,2.98-0.27,6.09-0.39,9.27
	c21.33,23.42,48.05,41.58,78.13,52.35c20.07,7.2,41.63,11.1,64.09,11.1s44.02-3.9,64.09-11.1c28.99-10.38,54.87-27.61,75.8-49.81
	c0.83-0.88,1.65-1.78,2.47-2.68C359.24,361.73,359.11,358.75,358.97,355.7z"/>
</svg>
